<?xml version="1.0" standalone="no"?>
<!DOCTYPE svg PUBLIC "-//W3C//DTD SVG 20010904//EN"
 "http://www.w3.org/TR/2001/REC-SVG-20010904/DTD/svg10.dtd">
<svg version="1.0" xmlns="http://www.w3.org/2000/svg"
 width="94.000000pt" height="94.000000pt" viewBox="0 0 94.000000 94.000000"
 preserveAspectRatio="xMidYMid meet">
<metadata>
Created by potrace 1.14, written by Peter Selinger 2001-2017
</metadata>
<g transform="translate(0.000000,94.000000) scale(0.100000,-0.100000)"
fill="#000000" stroke="none">
<path d="M473 911 c-20 -17 -20 -17 1 -32 19 -14 22 -14 37 0 14 15 14 17 -1
32 -15 14 -19 14 -37 0z"/>
<path d="M482 814 c-10 -11 -13 -68 -13 -226 -1 -219 -2 -228 -41 -228 -17 0
-18 16 -18 192 l0 193 -25 -27 c-25 -27 -25 -29 -25 -201 l0 -173 -38 -22
c-82 -46 -142 -124 -164 -213 -24 -99 -31 -94 120 -96 l132 -2 0 143 c0 122 2
145 16 150 39 15 43 9 42 -81 0 -222 -1 -213 27 -211 l25 2 0 148 c0 134 2
148 18 148 35 0 39 -13 38 -148 -1 -74 1 -138 5 -143 3 -5 59 -8 130 -7 l124
3 0 30 c2 95 -73 215 -172 276 l-33 21 0 172 c0 167 -1 173 -23 194 -13 12
-25 22 -28 22 -3 0 -4 -81 -4 -181 0 -99 -3 -183 -7 -185 -5 -3 -17 -2 -28 1
-19 6 -20 16 -20 218 -1 152 -4 217 -13 228 -10 14 -14 14 -25 3z m-122 -654
l0 -120 -85 0 -85 0 6 28 c11 49 45 112 83 151 29 31 66 59 79 61 1 0 2 -54 2
-120z m355 49 c32 -39 60 -94 70 -136 l7 -33 -81 0 -81 0 0 121 0 120 29 -20
c16 -12 41 -35 56 -52z"/>
<path d="M258 438 c-17 -17 -17 -19 0 -35 15 -16 18 -17 33 -2 14 14 14 17 0
35 -15 19 -17 19 -33 2z"/>
<path d="M689 436 c-14 -17 -14 -21 0 -35 15 -15 18 -14 34 2 16 16 16 18 -1
35 -17 17 -19 17 -33 -2z"/>
</g>
</svg>
